<mxfile host="app.diagrams.net" modified="2023-09-08T09:49:43.471Z" agent="Mozilla/5.0 (Windows NT 10.0; Win64; x64) AppleWebKit/537.36 (KHTML, like Gecko) Chrome/116.0.0.0 Safari/537.36 Edg/116.0.1938.69" etag="IKxLS5mSkNw9HfaVwvsd" version="21.7.2" type="github">
  <diagram name="Страница — 1" id="6Xrq_8bP2JuobU7doDWr">
    <mxGraphModel dx="1386" dy="1928" grid="1" gridSize="10" guides="1" tooltips="1" connect="1" arrows="1" fold="1" page="1" pageScale="1" pageWidth="827" pageHeight="1169" math="0" shadow="0">
      <root>
        <mxCell id="0" />
        <mxCell id="1" parent="0" />
        <mxCell id="u-ZDKzOOh1IOrqpCMDCx-1" value="Глав.врач" style="shape=umlActor;verticalLabelPosition=bottom;verticalAlign=top;html=1;outlineConnect=0;" vertex="1" parent="1">
          <mxGeometry x="390" y="40" width="30" height="60" as="geometry" />
        </mxCell>
        <mxCell id="u-ZDKzOOh1IOrqpCMDCx-2" value="Вет.врач" style="shape=umlActor;verticalLabelPosition=bottom;verticalAlign=top;html=1;outlineConnect=0;" vertex="1" parent="1">
          <mxGeometry x="390" y="200" width="30" height="60" as="geometry" />
        </mxCell>
        <mxCell id="u-ZDKzOOh1IOrqpCMDCx-3" value="Регистратура" style="shape=umlActor;verticalLabelPosition=bottom;verticalAlign=top;html=1;outlineConnect=0;" vertex="1" parent="1">
          <mxGeometry x="390" y="360" width="30" height="60" as="geometry" />
        </mxCell>
        <mxCell id="u-ZDKzOOh1IOrqpCMDCx-4" value="Клиент&lt;br&gt;" style="shape=umlActor;verticalLabelPosition=bottom;verticalAlign=top;html=1;outlineConnect=0;" vertex="1" parent="1">
          <mxGeometry x="390" y="525" width="30" height="60" as="geometry" />
        </mxCell>
        <mxCell id="u-ZDKzOOh1IOrqpCMDCx-6" value="" style="endArrow=none;html=1;rounded=0;exitX=0.5;exitY=0;exitDx=0;exitDy=0;exitPerimeter=0;" edge="1" parent="1" source="u-ZDKzOOh1IOrqpCMDCx-3" target="u-ZDKzOOh1IOrqpCMDCx-2">
          <mxGeometry width="50" height="50" relative="1" as="geometry">
            <mxPoint x="340" y="340" as="sourcePoint" />
            <mxPoint x="390" y="290" as="targetPoint" />
          </mxGeometry>
        </mxCell>
        <mxCell id="u-ZDKzOOh1IOrqpCMDCx-7" value="" style="endArrow=none;html=1;rounded=0;exitX=0.5;exitY=0;exitDx=0;exitDy=0;exitPerimeter=0;" edge="1" parent="1" source="u-ZDKzOOh1IOrqpCMDCx-4">
          <mxGeometry width="50" height="50" relative="1" as="geometry">
            <mxPoint x="404.5" y="490" as="sourcePoint" />
            <mxPoint x="404.5" y="390" as="targetPoint" />
            <Array as="points">
              <mxPoint x="404.5" y="440" />
            </Array>
          </mxGeometry>
        </mxCell>
        <mxCell id="u-ZDKzOOh1IOrqpCMDCx-8" value="" style="endArrow=none;html=1;rounded=0;exitX=0.5;exitY=0;exitDx=0;exitDy=0;exitPerimeter=0;" edge="1" parent="1" source="u-ZDKzOOh1IOrqpCMDCx-2" target="u-ZDKzOOh1IOrqpCMDCx-1">
          <mxGeometry width="50" height="50" relative="1" as="geometry">
            <mxPoint x="364" y="180" as="sourcePoint" />
            <mxPoint x="414" y="130" as="targetPoint" />
          </mxGeometry>
        </mxCell>
        <mxCell id="u-ZDKzOOh1IOrqpCMDCx-9" value="Контроль качества мед.услуг" style="ellipse;whiteSpace=wrap;html=1;" vertex="1" parent="1">
          <mxGeometry x="510" y="60" width="120" height="80" as="geometry" />
        </mxCell>
        <mxCell id="u-ZDKzOOh1IOrqpCMDCx-10" value="составление отчетов о работе вет.клиники" style="ellipse;whiteSpace=wrap;html=1;" vertex="1" parent="1">
          <mxGeometry x="470" y="-120" width="120" height="80" as="geometry" />
        </mxCell>
        <mxCell id="u-ZDKzOOh1IOrqpCMDCx-11" value="организация работы трудового коллектива" style="ellipse;whiteSpace=wrap;html=1;" vertex="1" parent="1">
          <mxGeometry x="490" y="-30" width="120" height="80" as="geometry" />
        </mxCell>
        <mxCell id="u-ZDKzOOh1IOrqpCMDCx-12" value="" style="endArrow=none;html=1;rounded=0;exitX=0;exitY=0.5;exitDx=0;exitDy=0;" edge="1" parent="1" source="u-ZDKzOOh1IOrqpCMDCx-9" target="u-ZDKzOOh1IOrqpCMDCx-1">
          <mxGeometry width="50" height="50" relative="1" as="geometry">
            <mxPoint x="415" y="210" as="sourcePoint" />
            <mxPoint x="430" y="70" as="targetPoint" />
          </mxGeometry>
        </mxCell>
        <mxCell id="u-ZDKzOOh1IOrqpCMDCx-13" value="" style="endArrow=none;html=1;rounded=0;exitX=0;exitY=0.5;exitDx=0;exitDy=0;" edge="1" parent="1" source="u-ZDKzOOh1IOrqpCMDCx-11" target="u-ZDKzOOh1IOrqpCMDCx-1">
          <mxGeometry width="50" height="50" relative="1" as="geometry">
            <mxPoint x="510" y="50" as="sourcePoint" />
            <mxPoint x="420" y="24" as="targetPoint" />
          </mxGeometry>
        </mxCell>
        <mxCell id="u-ZDKzOOh1IOrqpCMDCx-14" value="" style="endArrow=none;html=1;rounded=0;exitX=0.083;exitY=0.875;exitDx=0;exitDy=0;exitPerimeter=0;" edge="1" parent="1" source="u-ZDKzOOh1IOrqpCMDCx-10" target="u-ZDKzOOh1IOrqpCMDCx-1">
          <mxGeometry width="50" height="50" relative="1" as="geometry">
            <mxPoint x="490" y="6" as="sourcePoint" />
            <mxPoint x="400" y="-20" as="targetPoint" />
          </mxGeometry>
        </mxCell>
        <mxCell id="u-ZDKzOOh1IOrqpCMDCx-15" value="прием пациента" style="ellipse;whiteSpace=wrap;html=1;" vertex="1" parent="1">
          <mxGeometry x="140" y="140" width="120" height="80" as="geometry" />
        </mxCell>
        <mxCell id="u-ZDKzOOh1IOrqpCMDCx-17" value="лечение пациента" style="ellipse;whiteSpace=wrap;html=1;" vertex="1" parent="1">
          <mxGeometry x="140" y="230" width="120" height="80" as="geometry" />
        </mxCell>
        <mxCell id="u-ZDKzOOh1IOrqpCMDCx-18" value="информация о пациенте" style="ellipse;whiteSpace=wrap;html=1;" vertex="1" parent="1">
          <mxGeometry x="140" y="330" width="120" height="80" as="geometry" />
        </mxCell>
        <mxCell id="u-ZDKzOOh1IOrqpCMDCx-19" value="" style="endArrow=none;html=1;rounded=0;entryX=1;entryY=0.5;entryDx=0;entryDy=0;" edge="1" parent="1" source="u-ZDKzOOh1IOrqpCMDCx-2" target="u-ZDKzOOh1IOrqpCMDCx-15">
          <mxGeometry width="50" height="50" relative="1" as="geometry">
            <mxPoint x="360" y="193" as="sourcePoint" />
            <mxPoint x="270" y="167" as="targetPoint" />
          </mxGeometry>
        </mxCell>
        <mxCell id="u-ZDKzOOh1IOrqpCMDCx-21" value="" style="endArrow=none;html=1;rounded=0;entryX=1;entryY=0.5;entryDx=0;entryDy=0;" edge="1" parent="1" target="u-ZDKzOOh1IOrqpCMDCx-17">
          <mxGeometry width="50" height="50" relative="1" as="geometry">
            <mxPoint x="400" y="235" as="sourcePoint" />
            <mxPoint x="270" y="190" as="targetPoint" />
          </mxGeometry>
        </mxCell>
        <mxCell id="u-ZDKzOOh1IOrqpCMDCx-22" value="" style="endArrow=none;html=1;rounded=0;entryX=0.992;entryY=0.388;entryDx=0;entryDy=0;entryPerimeter=0;exitX=0;exitY=1;exitDx=0;exitDy=0;exitPerimeter=0;" edge="1" parent="1" source="u-ZDKzOOh1IOrqpCMDCx-2" target="u-ZDKzOOh1IOrqpCMDCx-18">
          <mxGeometry width="50" height="50" relative="1" as="geometry">
            <mxPoint x="410" y="245" as="sourcePoint" />
            <mxPoint x="280" y="200" as="targetPoint" />
          </mxGeometry>
        </mxCell>
        <mxCell id="u-ZDKzOOh1IOrqpCMDCx-23" value="" style="endArrow=none;html=1;rounded=0;entryX=1;entryY=1;entryDx=0;entryDy=0;exitX=0;exitY=0.3333333333333333;exitDx=0;exitDy=0;exitPerimeter=0;" edge="1" parent="1" source="u-ZDKzOOh1IOrqpCMDCx-4" target="u-ZDKzOOh1IOrqpCMDCx-18">
          <mxGeometry width="50" height="50" relative="1" as="geometry">
            <mxPoint x="420" y="255" as="sourcePoint" />
            <mxPoint x="290" y="210" as="targetPoint" />
          </mxGeometry>
        </mxCell>
        <mxCell id="u-ZDKzOOh1IOrqpCMDCx-24" value="распределение клиентов к врачам" style="ellipse;whiteSpace=wrap;html=1;" vertex="1" parent="1">
          <mxGeometry x="500" y="240" width="120" height="80" as="geometry" />
        </mxCell>
        <mxCell id="u-ZDKzOOh1IOrqpCMDCx-25" value="запись на прием" style="ellipse;whiteSpace=wrap;html=1;" vertex="1" parent="1">
          <mxGeometry x="500" y="360" width="120" height="80" as="geometry" />
        </mxCell>
        <mxCell id="u-ZDKzOOh1IOrqpCMDCx-26" value="консультирование" style="ellipse;whiteSpace=wrap;html=1;" vertex="1" parent="1">
          <mxGeometry x="490" y="500" width="120" height="80" as="geometry" />
        </mxCell>
        <mxCell id="u-ZDKzOOh1IOrqpCMDCx-29" value="" style="endArrow=none;html=1;rounded=0;exitX=0;exitY=1;exitDx=0;exitDy=0;entryX=0.5;entryY=0.5;entryDx=0;entryDy=0;entryPerimeter=0;" edge="1" parent="1" source="u-ZDKzOOh1IOrqpCMDCx-24" target="u-ZDKzOOh1IOrqpCMDCx-3">
          <mxGeometry width="50" height="50" relative="1" as="geometry">
            <mxPoint x="520" y="229" as="sourcePoint" />
            <mxPoint x="440" y="247" as="targetPoint" />
          </mxGeometry>
        </mxCell>
        <mxCell id="u-ZDKzOOh1IOrqpCMDCx-30" value="" style="endArrow=none;html=1;rounded=0;exitX=0.033;exitY=0.363;exitDx=0;exitDy=0;entryX=0.5;entryY=0.5;entryDx=0;entryDy=0;entryPerimeter=0;exitPerimeter=0;" edge="1" parent="1" source="u-ZDKzOOh1IOrqpCMDCx-25">
          <mxGeometry width="50" height="50" relative="1" as="geometry">
            <mxPoint x="528" y="318" as="sourcePoint" />
            <mxPoint x="415" y="400" as="targetPoint" />
          </mxGeometry>
        </mxCell>
        <mxCell id="u-ZDKzOOh1IOrqpCMDCx-31" value="" style="endArrow=none;html=1;rounded=0;exitX=0.233;exitY=0;exitDx=0;exitDy=0;entryX=0.5;entryY=0.5;entryDx=0;entryDy=0;entryPerimeter=0;exitPerimeter=0;" edge="1" parent="1" source="u-ZDKzOOh1IOrqpCMDCx-26">
          <mxGeometry width="50" height="50" relative="1" as="geometry">
            <mxPoint x="538" y="328" as="sourcePoint" />
            <mxPoint x="425" y="410" as="targetPoint" />
          </mxGeometry>
        </mxCell>
        <mxCell id="u-ZDKzOOh1IOrqpCMDCx-32" value="" style="endArrow=none;html=1;rounded=0;exitX=0;exitY=0.5;exitDx=0;exitDy=0;entryX=1;entryY=0.3333333333333333;entryDx=0;entryDy=0;entryPerimeter=0;" edge="1" parent="1" source="u-ZDKzOOh1IOrqpCMDCx-26" target="u-ZDKzOOh1IOrqpCMDCx-4">
          <mxGeometry width="50" height="50" relative="1" as="geometry">
            <mxPoint x="548" y="338" as="sourcePoint" />
            <mxPoint x="435" y="420" as="targetPoint" />
          </mxGeometry>
        </mxCell>
        <mxCell id="u-ZDKzOOh1IOrqpCMDCx-33" value="" style="endArrow=none;html=1;rounded=0;exitX=0;exitY=1;exitDx=0;exitDy=0;entryX=0.75;entryY=0.1;entryDx=0;entryDy=0;entryPerimeter=0;" edge="1" parent="1" source="u-ZDKzOOh1IOrqpCMDCx-25" target="u-ZDKzOOh1IOrqpCMDCx-4">
          <mxGeometry width="50" height="50" relative="1" as="geometry">
            <mxPoint x="558" y="348" as="sourcePoint" />
            <mxPoint x="445" y="430" as="targetPoint" />
          </mxGeometry>
        </mxCell>
        <mxCell id="u-ZDKzOOh1IOrqpCMDCx-36" value="отмена записи на прием" style="ellipse;whiteSpace=wrap;html=1;" vertex="1" parent="1">
          <mxGeometry x="700" y="370" width="120" height="80" as="geometry" />
        </mxCell>
        <mxCell id="u-ZDKzOOh1IOrqpCMDCx-40" value="" style="endArrow=none;dashed=1;html=1;rounded=0;entryX=0;entryY=0.5;entryDx=0;entryDy=0;exitX=1.025;exitY=0.6;exitDx=0;exitDy=0;exitPerimeter=0;" edge="1" parent="1" source="u-ZDKzOOh1IOrqpCMDCx-25" target="u-ZDKzOOh1IOrqpCMDCx-36">
          <mxGeometry width="50" height="50" relative="1" as="geometry">
            <mxPoint x="580" y="530" as="sourcePoint" />
            <mxPoint x="630" y="480" as="targetPoint" />
          </mxGeometry>
        </mxCell>
        <mxCell id="u-ZDKzOOh1IOrqpCMDCx-42" value="оплата приема" style="ellipse;whiteSpace=wrap;html=1;" vertex="1" parent="1">
          <mxGeometry x="345" y="720" width="120" height="80" as="geometry" />
        </mxCell>
        <mxCell id="u-ZDKzOOh1IOrqpCMDCx-43" value="" style="endArrow=none;html=1;rounded=0;exitX=0.5;exitY=0;exitDx=0;exitDy=0;" edge="1" parent="1" source="u-ZDKzOOh1IOrqpCMDCx-42" target="u-ZDKzOOh1IOrqpCMDCx-4">
          <mxGeometry width="50" height="50" relative="1" as="geometry">
            <mxPoint x="500" y="550" as="sourcePoint" />
            <mxPoint x="430" y="555" as="targetPoint" />
          </mxGeometry>
        </mxCell>
        <mxCell id="u-ZDKzOOh1IOrqpCMDCx-44" value="отзыв" style="ellipse;whiteSpace=wrap;html=1;" vertex="1" parent="1">
          <mxGeometry x="530" y="720" width="120" height="80" as="geometry" />
        </mxCell>
        <mxCell id="u-ZDKzOOh1IOrqpCMDCx-45" value="" style="endArrow=none;dashed=1;html=1;rounded=0;entryX=0;entryY=0.5;entryDx=0;entryDy=0;exitX=1;exitY=0.5;exitDx=0;exitDy=0;" edge="1" parent="1" source="u-ZDKzOOh1IOrqpCMDCx-42">
          <mxGeometry width="50" height="50" relative="1" as="geometry">
            <mxPoint x="470" y="761" as="sourcePoint" />
            <mxPoint x="530" y="761" as="targetPoint" />
          </mxGeometry>
        </mxCell>
      </root>
    </mxGraphModel>
  </diagram>
</mxfile>
